<svg width="40" height="40" viewBox="0 0 40 40" fill="none" xmlns="http://www.w3.org/2000/svg">
    <rect width="40" height="40" rx="2" fill="#7D9870"/>
    <path d="M28.8571 21.4762H21.4762V28.8572C21.4762 29.6691 20.8119 30.3334 20 30.3334C19.1881 30.3334 18.5238 29.6691 18.5238 28.8572V21.4762H11.1428C10.3309 21.4762 9.66666 20.8119 9.66666 20C9.66666 19.1881 10.3309 18.5238 11.1428 18.5238H18.5238V11.1429C18.5238 10.331 19.1881 9.66669 20 9.66669C20.8119 9.66669 21.4762 10.331 21.4762 11.1429V18.5238H28.8571C29.669 18.5238 30.3333 19.1881 30.3333 20C30.3333 20.8119 29.669 21.4762 28.8571 21.4762Z"
          fill="white"/>
</svg>
