<svg width="25" height="24" viewBox="0 0 25 24" fill="none" xmlns="http://www.w3.org/2000/svg">
<path d="M15.6055 13.9746H14.8101L14.5282 13.708C15.5489 12.547 16.11 11.0649 16.1089 9.53196C16.1089 8.26278 15.725 7.0221 15.006 5.96682C14.2869 4.91153 13.2648 4.08904 12.069 3.60334C10.8732 3.11765 9.55738 2.99057 8.28792 3.23817C7.01847 3.48578 5.8524 4.09695 4.93718 4.99439C4.02195 5.89184 3.39867 7.03526 3.14616 8.28005C2.89365 9.52484 3.02325 10.8151 3.51857 11.9877C4.01388 13.1602 4.85267 14.1625 5.92886 14.8676C7.00506 15.5727 8.27031 15.9491 9.56464 15.9491C11.1856 15.9491 12.6757 15.3666 13.8234 14.3991L14.0952 14.6755V15.4554L19.1293 20.3818L20.6294 18.9108L15.6055 13.9746ZM9.56464 13.9746C7.0577 13.9746 5.03402 11.9902 5.03402 9.53196C5.03402 7.07372 7.0577 5.08936 9.56464 5.08936C12.0716 5.08936 14.0952 7.07372 14.0952 9.53196C14.0952 11.9902 12.0716 13.9746 9.56464 13.9746Z" fill="#A9ABB8"/>
</svg>
