<svg width="40" height="40" viewBox="0 0 40 40" fill="none" xmlns="http://www.w3.org/2000/svg">
    <path d="M27.5 3.75V6.25H36.25C36.5815 6.25 36.8995 6.3817 37.1339 6.61612C37.3683 6.85054 37.5 7.16848 37.5 7.5C37.5 7.83152 37.3683 8.14946 37.1339 8.38388C36.8995 8.6183 36.5815 8.75 36.25 8.75H34.905L32.7725 35.4C32.6719 36.653 32.1031 37.8221 31.1793 38.6746C30.2555 39.527 29.0445 40.0003 27.7875 40H12.2125C10.9555 40.0003 9.74449 39.527 8.82069 38.6746C7.89688 37.8221 7.32806 36.653 7.2275 35.4L5.095 8.75H3.75C3.41848 8.75 3.10054 8.6183 2.86612 8.38388C2.6317 8.14946 2.5 7.83152 2.5 7.5C2.5 7.16848 2.6317 6.85054 2.86612 6.61612C3.10054 6.3817 3.41848 6.25 3.75 6.25H12.5V3.75C12.5 2.75544 12.8951 1.80161 13.5983 1.09835C14.3016 0.395088 15.2554 0 16.25 0L23.75 0C24.7446 0 25.6984 0.395088 26.4017 1.09835C27.1049 1.80161 27.5 2.75544 27.5 3.75ZM15 3.75V6.25H25V3.75C25 3.41848 24.8683 3.10054 24.6339 2.86612C24.3995 2.6317 24.0815 2.5 23.75 2.5H16.25C15.9185 2.5 15.6005 2.6317 15.3661 2.86612C15.1317 3.10054 15 3.41848 15 3.75ZM11.25 12.5725L12.5 33.8225C12.5067 33.9886 12.5464 34.1517 12.6169 34.3023C12.6874 34.4529 12.7872 34.5878 12.9105 34.6994C13.0338 34.8109 13.1781 34.8967 13.3349 34.9518C13.4918 35.0068 13.6581 35.0301 13.824 35.0201C13.99 35.0101 14.1522 34.9671 14.3014 34.8937C14.4505 34.8202 14.5835 34.7177 14.6925 34.5922C14.8016 34.4667 14.8845 34.3208 14.9364 34.1628C14.9884 34.0049 15.0083 33.8382 14.995 33.6725L13.745 12.4225C13.7383 12.2564 13.6986 12.0933 13.6281 11.9427C13.5576 11.7921 13.4578 11.6572 13.3345 11.5456C13.2112 11.4341 13.0669 11.3483 12.9101 11.2932C12.7532 11.2382 12.5869 11.2149 12.421 11.2249C12.255 11.2349 12.0928 11.2779 11.9436 11.3513C11.7945 11.4248 11.6615 11.5273 11.5525 11.6528C11.4434 11.7783 11.3605 11.9242 11.3086 12.0822C11.2566 12.2401 11.2367 12.4068 11.25 12.5725ZM27.575 11.2525C27.2442 11.2334 26.9193 11.3464 26.6718 11.5667C26.4242 11.7871 26.2743 12.0967 26.255 12.4275L25.005 33.6775C24.9943 34.0034 25.1113 34.3206 25.3312 34.5614C25.551 34.8022 25.8563 34.9476 26.1818 34.9665C26.5073 34.9854 26.8274 34.8764 27.0736 34.6627C27.3199 34.449 27.4729 34.1475 27.5 33.8225L28.75 12.5725C28.7691 12.2417 28.6561 11.9168 28.4358 11.6693C28.2154 11.4217 27.9058 11.2718 27.575 11.2525ZM20 11.25C19.6685 11.25 19.3505 11.3817 19.1161 11.6161C18.8817 11.8505 18.75 12.1685 18.75 12.5V33.75C18.75 34.0815 18.8817 34.3995 19.1161 34.6339C19.3505 34.8683 19.6685 35 20 35C20.3315 35 20.6495 34.8683 20.8839 34.6339C21.1183 34.3995 21.25 34.0815 21.25 33.75V12.5C21.25 12.1685 21.1183 11.8505 20.8839 11.6161C20.6495 11.3817 20.3315 11.25 20 11.25Z"
          fill="#A9ABB8"/>
</svg>
