<svg width="40" height="40" viewBox="0 0 40 40" fill="none" xmlns="http://www.w3.org/2000/svg">
    <path d="M38.7549 4.85025C38.9885 5.08456 39.1196 5.40191 39.1196 5.73275C39.1196 6.06359 38.9885 6.38094 38.7549 6.61525L36.1474 9.22525L31.1474 4.22525L33.7549 1.61525C33.9893 1.38091 34.3072 1.24927 34.6387 1.24927C34.9701 1.24927 35.288 1.38091 35.5224 1.61525L38.7549 4.84775V4.85025ZM34.3799 10.9903L29.3799 5.99025L12.3474 23.0252C12.2098 23.1628 12.1062 23.3306 12.0449 23.5153L10.0324 29.5502C9.9959 29.6603 9.99072 29.7783 10.0174 29.8911C10.0441 30.0039 10.1017 30.107 10.1837 30.189C10.2656 30.2709 10.3688 30.3285 10.4816 30.3552C10.5944 30.3819 10.7124 30.3767 10.8224 30.3402L16.8574 28.3278C17.0418 28.2672 17.2096 28.1644 17.3474 28.0278L34.3799 10.9903Z"
          fill="#A9ABB8"/>
    <path fill-rule="evenodd" clip-rule="evenodd"
          d="M2.5 33.75C2.5 34.7446 2.89509 35.6984 3.59835 36.4016C4.30161 37.1049 5.25544 37.5 6.25 37.5H33.75C34.7446 37.5 35.6984 37.1049 36.4016 36.4016C37.1049 35.6984 37.5 34.7446 37.5 33.75V18.75C37.5 18.4185 37.3683 18.1005 37.1339 17.8661C36.8995 17.6317 36.5815 17.5 36.25 17.5C35.9185 17.5 35.6005 17.6317 35.3661 17.8661C35.1317 18.1005 35 18.4185 35 18.75V33.75C35 34.0815 34.8683 34.3995 34.6339 34.6339C34.3995 34.8683 34.0815 35 33.75 35H6.25C5.91848 35 5.60054 34.8683 5.36612 34.6339C5.1317 34.3995 5 34.0815 5 33.75V6.25C5 5.91848 5.1317 5.60054 5.36612 5.36612C5.60054 5.1317 5.91848 5 6.25 5H22.5C22.8315 5 23.1495 4.8683 23.3839 4.63388C23.6183 4.39946 23.75 4.08152 23.75 3.75C23.75 3.41848 23.6183 3.10054 23.3839 2.86612C23.1495 2.6317 22.8315 2.5 22.5 2.5H6.25C5.25544 2.5 4.30161 2.89509 3.59835 3.59835C2.89509 4.30161 2.5 5.25544 2.5 6.25V33.75Z"
          fill="#A9ABB8"/>
</svg>
