<svg width="36" height="36" viewBox="0 0 36 36" fill="none" xmlns="http://www.w3.org/2000/svg">
    <path d="M26.8571 19.4762H19.4762V26.8572C19.4762 27.6691 18.8119 28.3334 18 28.3334C17.1881 28.3334 16.5238 27.6691 16.5238 26.8572V19.4762H9.14282C8.33091 19.4762 7.66663 18.8119 7.66663 18C7.66663 17.1881 8.33091 16.5238 9.14282 16.5238H16.5238V9.14288C16.5238 8.33097 17.1881 7.66669 18 7.66669C18.8119 7.66669 19.4762 8.33097 19.4762 9.14288V16.5238H26.8571C27.669 16.5238 28.3333 17.1881 28.3333 18C28.3333 18.8119 27.669 19.4762 26.8571 19.4762Z"
          fill="white"/>
</svg>
