<svg width="200" height="176" viewBox="0 0 200 176" fill="none" xmlns="http://www.w3.org/2000/svg">
<path d="M139.582 44.8963L139.445 44.4311C140.798 44.0339 141.529 43.8052 141.53 43.8052L141.673 44.2675C141.673 44.2675 140.941 44.4973 139.582 44.8963Z" fill="#B3B3B3"/>
<path d="M190.544 165.081C190.476 164.262 190.394 163.44 190.301 162.636C190.228 162.005 190.146 161.378 190.055 160.753L190.535 160.683C190.627 161.313 190.71 161.945 190.783 162.58C190.879 163.389 190.959 164.217 191.028 165.041L190.544 165.081ZM189.279 156.471C188.974 155.06 188.613 153.641 188.212 152.254L188.679 152.119C189.085 153.517 189.446 154.948 189.754 156.368L189.279 156.471ZM186.857 148.119C186.361 146.765 185.809 145.408 185.221 144.087L185.665 143.889C186.258 145.221 186.813 146.588 187.313 147.952L186.857 148.119ZM183.313 140.175C182.637 138.902 181.907 137.632 181.143 136.402L181.555 136.147C182.324 137.386 183.06 138.668 183.741 139.949L183.313 140.175ZM178.722 132.782C177.879 131.608 176.984 130.448 176.064 129.333L176.438 129.025C177.365 130.148 178.266 131.317 179.117 132.5L178.722 132.782ZM173.181 126.069C172.189 125.019 171.148 123.987 170.086 123.002L170.416 122.647C171.485 123.639 172.534 124.678 173.533 125.736L173.181 126.069ZM166.798 120.147C165.676 119.236 164.508 118.35 163.326 117.512L163.607 117.117C164.798 117.96 165.974 118.853 167.104 119.77L166.798 120.147ZM159.69 115.111C158.458 114.354 157.184 113.628 155.904 112.952L156.13 112.524C157.419 113.205 158.701 113.936 159.944 114.699L159.69 115.111ZM151.985 111.045C150.665 110.454 149.307 109.899 147.949 109.395L148.119 108.94C149.487 109.448 150.854 110.007 152.183 110.601L151.985 111.045ZM143.815 108.009C143.352 107.871 142.886 107.737 142.418 107.607C141.472 107.346 140.536 107.078 139.608 106.802L139.747 106.337C140.67 106.612 141.603 106.879 142.545 107.14C143.016 107.27 143.485 107.406 143.952 107.545L143.815 108.009ZM135.431 105.488C134.046 105.03 132.655 104.545 131.295 104.048L131.462 103.593C132.816 104.089 134.204 104.571 135.584 105.028L135.431 105.488ZM127.206 102.48C125.854 101.936 124.496 101.364 123.169 100.78L123.365 100.337C124.687 100.918 126.04 101.488 127.387 102.03L127.206 102.48ZM119.19 98.9496C117.88 98.3203 116.562 97.6601 115.274 96.9875L115.498 96.5594C116.784 97.2296 118.095 97.887 119.4 98.5139L119.19 98.9496ZM111.429 94.8955C110.162 94.1786 108.892 93.4313 107.654 92.6735L107.907 92.2602C109.14 93.0141 110.405 93.7596 111.669 94.4736L111.429 94.8955ZM103.958 90.3251C102.743 89.5245 101.529 88.6917 100.343 87.8516L100.624 87.4569C101.804 88.2945 103.016 89.1217 104.225 89.9213L103.958 90.3251ZM96.8147 85.2549C95.6623 84.3763 94.5052 83.4631 93.3766 82.5413L93.6842 82.1659C94.8085 83.0854 95.9609 83.9944 97.109 84.8702L96.8147 85.2549ZM90.0314 79.7129C88.9361 78.7563 87.8442 77.7678 86.7823 76.7755L87.1156 76.4211C88.1737 77.4096 89.2633 78.3947 90.3538 79.3475L90.0314 79.7129ZM83.6309 73.7345C82.6052 72.7132 81.5781 71.6568 80.5766 70.5951L80.9299 70.2621C81.9299 71.3209 82.9514 72.3736 83.9728 73.3916L83.6309 73.7345ZM77.6218 67.3605C76.6609 66.276 75.6999 65.1591 74.7647 64.0398L75.1376 63.7292C76.0681 64.8446 77.0261 65.9587 77.9842 67.0389L77.6218 67.3605ZM72.008 60.6378C71.1166 59.5056 70.2214 58.335 69.3462 57.1601L69.7357 56.8709C70.6081 58.0425 71.5009 59.2098 72.3895 60.3386L72.008 60.6378ZM62.05 58.0824L62.0442 57.5977C63.4661 57.581 64.9361 57.5435 66.4137 57.4873L66.4323 57.9721C64.9471 58.0282 63.4738 58.0657 62.0452 58.0824H62.05ZM57.6666 58.071C56.178 58.0448 54.7042 57.9949 53.2857 57.9217L53.3104 57.4374C54.7242 57.5102 56.1928 57.5601 57.6757 57.5858L57.6666 58.071ZM70.8095 57.7519L70.7794 57.2685C72.208 57.1805 73.6747 57.0735 75.1433 56.9522L75.1837 57.4351C73.708 57.5573 72.2357 57.6644 70.8071 57.7519H70.8095ZM48.91 57.6148C47.4219 57.4807 45.9547 57.3156 44.5504 57.1253L44.6161 56.6444C46.0132 56.8347 47.4733 56.9984 48.9533 57.1321L48.91 57.6148ZM79.5476 57.0302L79.5 56.5479C80.92 56.4024 82.3818 56.2397 83.8447 56.0637L83.9028 56.5455C82.4319 56.7215 80.9671 56.8847 79.5447 57.0302H79.5476ZM40.2195 56.4228C38.7461 56.1431 37.3042 55.8229 35.9338 55.4714L36.0547 55.0015C37.4152 55.3512 38.8466 55.6674 40.3095 55.9471L40.2195 56.4228ZM88.2437 55.9861L88.1781 55.5057C89.6023 55.3106 91.0585 55.1004 92.5071 54.8802L92.5799 55.3592C91.1261 55.5804 89.6671 55.7915 88.2404 55.9866L88.2437 55.9861ZM96.9023 54.6718L96.8223 54.1933C98.2757 53.9513 99.7125 53.7019 101.133 53.445L101.219 53.9207C99.7987 54.1769 98.3598 54.4273 96.9023 54.6718ZM31.7185 54.2243C30.2899 53.7391 28.9133 53.2006 27.6233 52.6245L27.8218 52.1822C29.0966 52.753 30.4594 53.2852 31.8732 53.7657L31.7185 54.2243ZM66.7743 53.6145C65.9452 52.4376 65.1118 51.2223 64.298 50.0026L64.7018 49.7338C65.5147 50.9501 66.3452 52.1598 67.1723 53.3352L66.7743 53.6145ZM105.525 53.1178L105.433 52.6421C106.889 52.3605 108.319 52.0752 109.724 51.786L109.822 52.2616C108.417 52.5486 106.985 52.8333 105.526 53.1159L105.525 53.1178ZM114.107 51.353L114.004 50.8773C115.467 50.5602 116.891 50.2421 118.274 49.9227L118.382 50.395C117.001 50.7125 115.576 51.0312 114.109 51.3512L114.107 51.353ZM23.7147 50.6109C22.4492 49.8654 21.2361 49.0347 20.0838 48.1242L20.3861 47.7436C21.5211 48.6405 22.7161 49.4588 23.9628 50.1929L23.7147 50.6109ZM122.647 49.3938L122.533 48.9228C124.018 48.5651 125.434 48.2155 126.781 47.8739L126.9 48.3439C125.555 48.6821 124.135 49.0336 122.649 49.3918L122.647 49.3938ZM131.142 47.2465L131.018 46.778C132.579 46.3646 133.994 45.9798 135.243 45.6326L135.372 46.0997C134.123 46.4426 132.707 46.8303 131.143 47.2442L131.142 47.2465ZM61.9071 46.3346C61.139 45.1259 60.3628 43.8739 59.599 42.6134L60.0138 42.3623C60.7757 43.62 61.5504 44.8696 62.3166 46.0726L61.9071 46.3346ZM16.8566 45.127C15.8632 44.0422 14.9657 42.8736 14.1742 41.6341L14.5837 41.3738C15.3602 42.5892 16.2406 43.7351 17.2152 44.7987L16.8566 45.127ZM57.3676 38.8452C56.6576 37.6213 55.9299 36.3407 55.2037 35.0398L55.628 34.8019C56.3528 36.1019 57.0785 37.3806 57.7871 38.6021L57.3676 38.8452ZM12.1414 37.7273C12.0912 37.6071 12.0421 37.4861 11.9942 37.3644C11.4885 36.0915 11.0342 34.8247 10.6452 33.5994L11.108 33.4529C11.4938 34.6673 11.9437 35.9231 12.4456 37.186C12.4933 37.3049 12.5409 37.4238 12.5885 37.5418L12.1414 37.7273ZM53.1014 31.1992C52.389 29.8781 51.7033 28.5899 51.0442 27.3348L51.4728 27.1092C52.1318 28.3612 52.8167 29.6478 53.5275 30.9689L53.1014 31.1992ZM9.51235 29.3559C9.20228 27.9216 8.98201 26.4694 8.85282 25.0077L9.33616 24.9668C9.46371 26.4083 9.68094 27.8405 9.98662 29.255L9.51235 29.3559ZM49.0166 23.4575L48.6833 22.8201C48.0991 21.6982 47.535 20.6178 46.9909 19.5789L47.4195 19.3534C47.9646 20.3916 48.5287 21.4729 49.1118 22.597L49.4451 23.2339L49.0166 23.4575ZM9.30849 20.6439L8.82422 20.6049C8.9355 19.1345 9.20535 17.6802 9.62901 16.2676L10.0933 16.4104C9.68102 17.7881 9.41839 19.2062 9.30994 20.6401L9.30849 20.6439ZM44.8566 15.7949C44.0556 14.5944 43.1442 13.4712 42.1342 12.4399L42.4814 12.1012C43.5124 13.1539 44.4427 14.3006 45.2604 15.5261L44.8566 15.7949ZM11.868 12.5032L11.4576 12.2439C12.251 10.9909 13.2269 9.86309 14.3532 8.89757L14.669 9.26617C13.5801 10.1988 12.6365 11.2886 11.8695 12.4994L11.868 12.5032ZM38.8352 9.64917C37.6513 8.82276 36.3941 8.10626 35.0795 7.50863L35.2804 7.06768C36.622 7.67711 37.905 8.40787 39.1133 9.25095L38.8352 9.64917ZM18.2961 6.97872L18.0971 6.53672C19.4493 5.93431 20.8718 5.50401 22.3314 5.25579L22.4142 5.73147C20.9954 5.97259 19.6124 6.39032 18.2976 6.97489L18.2961 6.97872ZM30.9957 6.09252C29.5941 5.7469 28.162 5.53876 26.72 5.47121L26.7418 4.98706C28.2154 5.05611 29.6787 5.26863 31.1109 5.6216L30.9957 6.09252Z" fill="#B3B3B3"/>
<path d="M191.299 171.016H190.814C190.814 170.284 190.804 170.208 190.785 169.49L191.27 169.477C191.29 170.2 191.299 170.279 191.299 171.016Z" fill="#B3B3B3"/>
<path d="M153.401 102.29H41.2344V170.576H153.401V102.29Z" fill="#DEDEDE"/>
<path d="M153.401 102.288H41.2344V135.433L72.6344 170.574H153.401V102.288Z" fill="#D0D0D0"/>
<path d="M145.373 88.1445H138.86C138.441 88.1445 138.102 88.4838 138.102 88.9023V116.859C138.102 117.277 138.441 117.616 138.86 117.616H145.373C145.791 117.616 146.131 117.277 146.131 116.859V88.9023C146.131 88.4838 145.791 88.1445 145.373 88.1445Z" fill="#D0D0D0"/>
<path d="M137.341 88.1445H130.829C130.41 88.1445 130.07 88.4838 130.07 88.9023V116.859C130.07 117.277 130.41 117.616 130.829 117.616H137.341C137.76 117.616 138.1 117.277 138.1 116.859V88.9023C138.1 88.4838 137.76 88.1445 137.341 88.1445Z" fill="#B3B3B3"/>
<path d="M129.314 91.6196H122.802C122.383 91.6196 122.043 91.9589 122.043 92.3774V120.334C122.043 120.752 122.383 121.092 122.802 121.092H129.314C129.733 121.092 130.072 120.752 130.072 120.334V92.3774C130.072 91.9589 129.733 91.6196 129.314 91.6196Z" fill="#D0D0D0"/>
<path d="M121.283 88.1445H114.77C114.351 88.1445 114.012 88.4838 114.012 88.9023V116.859C114.012 117.277 114.351 117.616 114.77 117.616H121.283C121.702 117.616 122.041 117.277 122.041 116.859V88.9023C122.041 88.4838 121.702 88.1445 121.283 88.1445Z" fill="#B3B3B3"/>
<path d="M103.798 92.2605H97.2859C96.867 92.2605 96.5273 92.5998 96.5273 93.0182V120.975C96.5273 121.393 96.867 121.732 97.2859 121.732H103.798C104.217 121.732 104.557 121.393 104.557 120.975V93.0182C104.557 92.5998 104.217 92.2605 103.798 92.2605Z" fill="#B3B3B3"/>
<path d="M153.401 128.898H41.2344V132.757H153.401V128.898Z" fill="#B3B3B3"/>
<path d="M153.401 102.29H41.2353L35.1562 128.9H159.48L153.401 102.29Z" fill="#DEDEDE"/>
<path d="M146.359 41.4477L151.836 32.6953C151.836 32.6953 160.531 27.0524 168.098 27.4196C175.665 27.7868 188.042 25.758 191.567 22.3484L185.372 31.6203C185.372 31.6203 175.888 36.4398 168.48 36.7324C161.073 37.0249 152.356 37.9329 146.359 41.4477Z" fill="#DEDEDE"/>
</svg>
